:SAMPLES-PER-SECOND 30
:FULLY-SPECIFIED
:DEGREES
573
root  -38.0641 34.7388 6.45095 -174.647 42.3442 178.268
RightUpLeg  -15.0682 -14.9975 -2.00558
RightLeg  1.78344 1.57462 -0.0517534
RightFoot  17.5229 -0.0134726 0.614707
RightToes  -25.6377 -0.114242 -0.221165
Spine  -1.89593 0.555378 -1.12941
Spine1  -3.78967 1.18214 -1.50548
HEad  -76.2288 2.45071 12.4854
LeftShoulder1  -1.94126e-019 -3.10601e-018 -2.51263e-017
LeftArm  13.855 32.4793 -70.1829
LeftForeArm  127.908 -73.6379 -139.938
LeftHand  0.0114722 1.17968 -0.500646
RightShoulder  -4.96962e-017 0 -2.36833e-017
RightArm  18.4764 -23.5065 71.9577
RightForeArm  146.914 79.5505 121.608
RightHand  0.199043 4.57362 2.02699
LeftUpLeg  -5.24655 2.53591 -6.99955
LeftLeg  5.66994 21.1016 0.715268
LeftFoot  -1.11024 -0.00303622 -0.263378
LeftToes  -3.8424 1.49739e-006 1.00523e-007
574
root  -38.1035 34.7391 6.45092 -174.635 42.0955 178.253
RightUpLeg  -15.0359 -15.2478 -2.05152
RightLeg  1.66198 1.57801 -0.0552425
RightFoot  17.6093 -0.014292 0.618231
RightToes  -25.6623 -0.114483 -0.22173
Spine  -1.93006 0.60325 -1.13376
Spine1  -3.85872 1.27888 -1.51676
HEad  -76.497 2.22509 12.5065
LeftShoulder1  -1.94126e-019 -3.10601e-018 -2.51263e-017
LeftArm  13.3342 32.6388 -70.3149
LeftForeArm  127.548 -73.5945 -139.986
LeftHand  0.00802799 1.28445 -0.616852
RightShoulder  -4.96962e-017 0 -2.36833e-017
RightArm  17.2117 -23.8948 72.5316
RightForeArm  147.607 79.5432 121.874
RightHand  0.125401 4.47646 1.18782
LeftUpLeg  -5.28055 2.43498 -7.04693
LeftLeg  5.59971 20.9453 0.685083
LeftFoot  -1.03749 -0.00422425 -0.232125
LeftToes  -3.96326 1.49739e-006 1.00523e-007
575
root  -38.1407 34.7392 6.44999 -174.632 41.872 178.234
RightUpLeg  -15.0093 -15.5683 -2.08064
RightLeg  1.57227 1.6651 -0.0670182
RightFoot  17.6918 -0.0174395 0.647078
RightToes  -25.7761 -0.114704 -0.222266
Spine  -1.95331 0.629013 -1.13832
Spine1  -3.9049 1.33213 -1.52793
HEad  -76.8655 1.98637 12.5048
LeftShoulder1  -1.94126e-019 -3.10601e-018 -2.51263e-017
LeftArm  12.7287 32.7026 -70.5162
LeftForeArm  127.066 -73.6168 -139.844
LeftHand  0.00669672 1.25161 -0.609334
RightShoulder  -4.96962e-017 0 -2.36833e-017
RightArm  16.177 -24.1022 72.9811
RightForeArm  147.999 79.5502 121.954
RightHand  0.0770235 4.30776 0.640955
LeftUpLeg  -5.28663 2.36002 -7.09521
LeftLeg  5.51675 20.7977 0.65099
LeftFoot  -0.99121 -0.00483728 -0.211568
LeftToes  -3.85971 1.49739e-006 1.00523e-007
576
root  -38.1801 34.7385 6.44653 -174.635 41.6665 178.252
RightUpLeg  -14.96 -15.7624 -2.11952
RightLeg  1.48847 1.67671 -0.0671405
RightFoot  17.7413 -0.0189194 0.651431
RightToes  -25.6858 -0.114908 -0.222768
Spine  -1.97482 0.663344 -1.1386
Spine1  -3.9466 1.39966 -1.52957
HEad  -77.128 1.65263 12.5759
LeftShoulder1  -1.94126e-019 -3.10601e-018 -2.51263e-017
LeftArm  12.3596 32.6636 -70.7295
LeftForeArm  127.364 -73.7146 -139.644
LeftHand  0.00828324 1.08918 -0.630355
RightShoulder  -4.96962e-017 0 -2.36833e-017
RightArm  15.265 -24.2777 73.2724
RightForeArm  147.459 79.5325 121.892
RightHand  0.0531781 4.07919 0.379603
LeftUpLeg  -5.26986 2.22172 -7.1284
LeftLeg  5.40802 20.7368 0.610652
LeftFoot  -0.967172 -0.00491384 -0.201502
LeftToes  -3.71344 1.49739e-006 1.00523e-007
577
root  -38.2202 34.7362 6.44021 -174.645 41.5359 178.242
RightUpLeg  -14.9562 -15.8919 -2.1759
RightLeg  1.43549 1.66875 -0.0650996
RightFoot  17.8544 -0.0196812 0.652112
RightToes  -25.9463 -0.115099 -0.223232
Spine  -2.00652 0.685922 -1.14781
Spine1  -4.00965 1.44537 -1.54906
HEad  -77.0988 1.28595 12.6863
LeftShoulder1  -1.94126e-019 -3.10601e-018 -2.51263e-017
LeftArm  12.1545 32.5858 -70.9007
LeftForeArm  127.226 -73.8534 -139.256
LeftHand  0.0120091 1.14456 -0.506004
RightShoulder  -4.96962e-017 0 -2.36833e-017
RightArm  14.6935 -24.3816 73.3552
RightForeArm  147.157 79.427 122.443
RightHand  0.0629797 3.85945 0.526669
LeftUpLeg  -5.23833 2.13912 -7.18563
LeftLeg  5.27425 20.6916 0.562093
LeftFoot  -0.910113 -0.00594161 -0.179204
LeftToes  -3.78302 1.49739e-006 1.00523e-007
578
root  -38.2628 34.7342 6.43319 -174.675 41.4161 178.233
RightUpLeg  -14.9604 -15.9897 -2.24702
RightLeg  1.45637 1.65542 -0.0639678
RightFoot  17.9016 -0.0191669 0.648605
RightToes  -26.0165 -0.115279 -0.223653
Spine  -2.04005 0.683327 -1.15913
Spine1  -4.07498 1.43678 -1.56953
HEad  -76.9413 0.964435 12.7499
LeftShoulder1  -1.94126e-019 -3.10601e-018 -2.51263e-017
LeftArm  12.2777 32.4764 -70.8973
LeftForeArm  126.173 -73.9724 -138.751
LeftHand  0.0240509 1.15295 -0.843154
RightShoulder  -4.96962e-017 0 -2.36833e-017
RightArm  14.6247 -24.3471 73.261
RightForeArm  148.013 79.3796 122.989
RightHand  0.00533887 3.56874 -0.182539
LeftUpLeg  -5.21527 1.99748 -7.24601
LeftLeg  5.20527 20.7017 0.537965
LeftFoot  -0.893991 -0.00608491 -0.173598
LeftToes  -3.68457 1.49739e-006 1.00523e-007
579
root  -38.3103 34.7242 6.42342 -174.773 41.3133 178.08
RightUpLeg  -14.8256 -15.3026 -2.66462
RightLeg  1.3434 1.31604 -0.0534104
RightFoot  17.7388 -0.00196514 0.541361
RightToes  -25.4427 -0.115452 -0.224027
Spine  -2.07056 0.647534 -1.21293
Spine1  -4.1325 1.36088 -1.66148
HEad  -76.6367 0.74291 12.8124
LeftShoulder1  -1.94126e-019 -3.10601e-018 -2.51263e-017
LeftArm  12.8947 32.3702 -70.6686
LeftForeArm  125.847 -73.9226 -138.825
LeftHand  0.0294138 1.21622 -1.01745
RightShoulder  -4.96962e-017 0 -2.36833e-017
RightArm  14.6681 -24.1163 73.1158
RightForeArm  148.602 79.373 123.202
RightHand  0.0240575 3.72577 0.0481167
LeftUpLeg  -5.22603 1.82244 -7.42441
LeftLeg  5.15379 20.7635 0.521248
LeftFoot  -0.894657 -0.00632235 -0.169871
LeftToes  -3.59859 1.49739e-006 1.00523e-007
580
root  -38.3504 34.7279 6.40907 -174.779 41.3104 178.129
RightUpLeg  -15.0191 -16.1309 -2.44792
RightLeg  1.54242 1.69807 -0.0630497
RightFoot  17.9685 -0.0213758 0.661919
RightToes  -26.1554 -0.115622 -0.22435
Spine  -2.08889 0.624162 -1.19802
Spine1  -4.16956 1.31128 -1.63926
HEad  -76.3939 0.583361 12.7423
LeftShoulder1  -1.94126e-019 -3.10601e-018 -2.51263e-017
LeftArm  13.3493 32.4118 -70.6762
LeftForeArm  126.017 -73.957 -138.764
LeftHand  0.0414994 1.13358 -1.31918
RightShoulder  -4.96962e-017 0 -2.36833e-017
RightArm  15.2766 -23.7959 72.5891
RightForeArm  148.494 79.3487 123.313
RightHand  0.0638536 4.0015 0.519887
LeftUpLeg  -5.16928 1.83226 -7.45365
LeftLeg  5.05475 20.755 0.485938
LeftFoot  -0.8814 -0.00653471 -0.170272
LeftToes  -3.39517 1.49739e-006 1.00523e-007
581
root  -38.394 34.7245 6.39274 -174.815 41.3336 178.109
RightUpLeg  -15.0406 -16.1123 -2.53465
RightLeg  1.56233 1.71496 -0.0630789
RightFoot  18.0296 -0.0224319 0.668039
RightToes  -26.1877 -0.11579 -0.224616
Spine  -2.10085 0.595075 -1.20095
Spine1  -4.19224 1.24969 -1.64125
HEad  -76.2425 0.512814 12.595
LeftShoulder1  -1.94126e-019 -3.10601e-018 -2.51263e-017
LeftArm  13.5333 32.5142 -70.7899
LeftForeArm  126.191 -73.9468 -138.823
LeftHand  0.0456765 1.15898 -1.44748
RightShoulder  -4.96962e-017 0 -2.36833e-017
RightArm  16.4139 -23.4636 71.9289
RightForeArm  149.013 79.2863 123.83
RightHand  0.0627293 4.02113 0.503617
LeftUpLeg  -5.16732 1.75353 -7.54242
LeftLeg  5.04851 20.854 0.485937
LeftFoot  -0.90501 -0.00633816 -0.181162
LeftToes  -3.2616 1.49739e-006 1.00523e-007
582
root  -38.4294 34.7216 6.3825 -174.856 41.4557 178.098
RightUpLeg  -15.0778 -16.0636 -2.58119
RightLeg  1.59986 1.78276 -0.0644081
RightFoot  18.0892 -0.0260704 0.690068
RightToes  -26.2436 -0.115961 -0.224769
Spine  -2.09337 0.592027 -1.2079
Spine1  -4.17759 1.24124 -1.65604
HEad  -76.1064 0.467402 12.5344
LeftShoulder1  -1.94126e-019 -3.10601e-018 -2.51263e-017
LeftArm  13.2955 32.6813 -71.0076
LeftForeArm  126.113 -73.9405 -138.827
LeftHand  0.0561587 1.13956 -1.72821
RightShoulder  -4.96962e-017 0 -2.36833e-017
RightArm  17.5514 -23.1957 71.3285
RightForeArm  149.874 79.279 124.129
RightHand  0.0643394 4.33585 0.48598
LeftUpLeg  -5.17531 1.79816 -7.60881
LeftLeg  5.08556 20.9311 0.500893
LeftFoot  -0.948713 -0.00596748 -0.199288
LeftToes  -3.12026 1.49739e-006 1.00523e-007
583
root  -38.4676 34.7156 6.36967 -174.903 41.6075 178.088
RightUpLeg  -15.1036 -15.998 -2.63471
RightLeg  1.61748 1.86673 -0.0668789
RightFoot  18.1605 -0.0306978 0.717917
RightToes  -26.382 -0.116137 -0.224781
Spine  -2.07703 0.60334 -1.21622
Spine1  -4.14596 1.26317 -1.67427
HEad  -76.0165 0.37849 12.4955
LeftShoulder1  -1.94126e-019 -3.10601e-018 -2.51263e-017
LeftArm  13.0479 32.81 -71.2531
LeftForeArm  126.182 -73.9667 -138.769
LeftHand  0.0562598 1.21159 -1.64456
RightShoulder  -4.96962e-017 0 -2.36833e-017
RightArm  18.4174 -23.0879 70.8894
RightForeArm  149.581 79.3055 123.89
RightHand  0.0567428 4.29313 0.399914
LeftUpLeg  -5.2042 1.91705 -7.68044
LeftLeg  5.17616 20.9566 0.533885
LeftFoot  -1.04368 -0.00471838 -0.235991
LeftToes  -2.92148 1.49739e-006 1.00523e-007
584
root  -38.5016 34.7105 6.36131 -174.932 41.757 178.091
RightUpLeg  -15.1342 -15.9604 -2.66303
RightLeg  1.61728 1.97876 -0.0709196
RightFoot  18.221 -0.0348936 0.754654
RightToes  -26.4761 -0.116323 -0.224694
Spine  -2.05541 0.621061 -1.2282
Spine1  -4.10447 1.29908 -1.70029
HEad  -76.0414 0.31075 12.3964
LeftShoulder1  -1.94126e-019 -3.10601e-018 -2.51263e-017
LeftArm  12.7817 32.8828 -71.4247
LeftForeArm  126.012 -74.0486 -138.517
LeftHand  0.0534173 1.24803 -1.74239
RightShoulder  -4.96962e-017 0 -2.36833e-017
RightArm  18.867 -23.1304 70.6812
RightForeArm  148.873 79.3606 123.357
RightHand  0.0505358 4.25509 0.329335
LeftUpLeg  -5.25461 1.98943 -7.73392
LeftLeg  5.2891 21.0269 0.576134
LeftFoot  -1.12051 -0.00418901 -0.266831
LeftToes  -2.83306 1.49739e-006 1.00523e-007
585
root  -38.5398 34.6985 6.35705 -175.024 41.9023 177.983
RightUpLeg  -15.014 -15.1707 -3.00099
RightLeg  1.48514 1.77751 -0.0678081
RightFoot  18.063 -0.0316792 0.687923
RightToes  -25.7815 -0.11652 -0.224548
Spine  -2.03874 0.642236 -1.26811
Spine1  -4.07326 1.34144 -1.78011
HEad  -76.0524 0.276147 12.3078
LeftShoulder1  -1.94126e-019 -3.10601e-018 -2.51263e-017
LeftArm  12.701 32.9209 -71.4039
LeftForeArm  126.01 -74.0512 -138.51
LeftHand  0.0494202 1.31298 -1.93519
RightShoulder  -4.96962e-017 0 -2.36833e-017
RightArm  19.0513 -23.2118 70.6508
RightForeArm  148.477 79.4062 122.968
RightHand  0.0434192 4.18376 0.250262
LeftUpLeg  -5.34617 2.01742 -7.87176
LeftLeg  5.45966 21.128 0.640283
LeftFoot  -1.22206 -0.00501107 -0.30831
LeftToes  -2.69853 1.49739e-006 1.00523e-007
